<svg id="visual" viewBox="0 0 600 600" width="600" height="600" xmlns="http://www.w3.org/2000/svg" xmlns:xlink="http://www.w3.org/1999/xlink" version="1.1"><rect x="0" y="0" width="600" height="600" fill="#F3F2EC"></rect><g transform="translate(289.1561934531482 291.760663962568)"><path d="M104.3 -170.6C141.9 -138.1 183.7 -120.6 213.1 -88C242.4 -55.4 259.3 -7.9 248.5 32.5C237.8 73 199.4 106.2 164.5 137.5C129.6 168.8 98.2 198.1 57.3 222.8C16.3 247.5 -34.1 267.7 -81.5 261.2C-128.9 254.8 -173.3 221.7 -199.1 179.4C-224.9 137.2 -232.2 85.8 -229.6 39C-227 -7.8 -214.5 -50 -188.1 -76.8C-161.7 -103.5 -121.4 -114.9 -87.7 -149.2C-54.1 -183.5 -27 -240.7 3.2 -245.6C33.3 -250.5 66.7 -203.1 104.3 -170.6" fill="none" stroke="#dddcdc" stroke-width="2"></path></g></svg>